PathFileType	4	(X/Y/Z)	Trial.trc
DataRate	CameraRate	NumFrames	NumMarkers	Units	OrigDataRate	OrigDataStartFrame	OrigNumFrames
9	9	10	2	mm	9	1	10
Frame#	Time	Marker1			Marker2		
		X1	Y1	Z1	X2	Y2	Z2
1	0	0.718827199377133	1.47532270114377	2.64204196219625	0.783606587143501	0.0613116866464177	0.503416623734217
2	0.111111111111111	0.47473651741796	-0.304061410930998	1.46018766985762	1.1006241774982	-0.542926761873765	0.880649658082866
3	0.222222222222222	1.84185061705522	0.849923134550748	0.578933250458811	0.22424151842463	-0.628217104400968	-0.559180769926489
4	0.333333333333333	-0.442916380619733	0.617786853349478	-1.15312779787642	0.218992875945892	0.894051123629694	-0.01032954403115
5	0.444444444444444	0.336181844663465	-0.500719126033718	-0.25402857114612	-0.941831107919615	-1.88186484230285	3.04818014534911
6	0.555555555555556	-0.429460341717587	-0.769153726047435	-0.0865943286939925	-0.908435766347869	-1.45135506404533	-1.03204089967663
7	0.666666666666667	-1.1419257655453	0.222113623436904	-1.48805610151982	-0.644859264246173	-0.257642426549784	-1.28095593373941
8	0.777777777777778	-1.26467121420831	-1.25054881461192	-2.27930254818374	0.777199654225566	0.696820608637927	-0.637862625417307
9	0.888888888888889	-0.391657537679986	-1.17918130721793	-0.174158364156926	-0.722810510145261	-0.277281695261342	-0.968956656641678
10	1	-1.12951093410016	-0.672137587639109	-1.00575478541081	-0.543127115694446	0.470732742348395	-0.674792820045799
